<svg xmlns="http://www.w3.org/2000/svg" xmlns:xlink="http://www.w3.org/1999/xlink" width="1920" height="1080" viewBox="0 0 1920 1080"><defs><style>.a{clip-path:url(#a);}.b,.g,.h,.i{fill:#fff;}.c{fill:url(#b);}.d,.j{opacity:0.3;}.d{fill:url(#c);}.e{opacity:0.14;fill:url(#d);}.f{fill:url(#e);}.g{opacity:0.2;}.h{opacity:0.12;}.i{opacity:0.13;}.j{fill:url(#f);}.k{fill:#5dd8ff;opacity:0.24;}.l{opacity:0.1;fill:url(#g);}</style><clipPath id="a"><rect width="1920" height="1080"/></clipPath><linearGradient id="b" x1="1.193" y1="0.101" x2="-0.717" y2="1.389" gradientUnits="objectBoundingBox"><stop offset="0" stop-color="#50adf3"/><stop offset="0.498" stop-color="#475ff8"/><stop offset="0.647" stop-color="#475ff8"/><stop offset="0.863" stop-color="#475ff8"/><stop offset="1" stop-color="#475ff8"/></linearGradient><linearGradient id="c" x1="1.171" y1="0.022" x2="0.189" y2="1.068" gradientUnits="objectBoundingBox"><stop offset="0" stop-color="#fff" stop-opacity="0.6"/><stop offset="0.686" stop-color="#fff" stop-opacity="0.051"/><stop offset="1" stop-color="#fff" stop-opacity="0"/></linearGradient><linearGradient id="d" x1="0.699" y1="0.078" x2="0.209" y2="1.476" gradientUnits="objectBoundingBox"><stop offset="0" stop-color="#a52eff"/><stop offset="1" stop-color="#475ff8"/><stop offset="1" stop-color="#4c51f4"/><stop offset="1" stop-color="#3d58f3"/></linearGradient><linearGradient id="e" x1="1.317" y1="1.978" x2="-0.085" y2="-0.979" gradientUnits="objectBoundingBox"><stop offset="0" stop-color="#a52eff"/><stop offset="0.498" stop-color="#5347f8"/><stop offset="0.647" stop-color="#496cf7"/><stop offset="0.863" stop-color="#4c8af4"/><stop offset="1" stop-color="#3b94f9"/></linearGradient><linearGradient id="f" x1="0" y1="0.5" x2="1" y2="0.5" xlink:href="#c"/><linearGradient id="g" x1="0.699" y1="0.922" x2="0.209" y2="-0.476" xlink:href="#d"/></defs><g id="h" class="a"><rect class="b" width="1920" height="1080"/><g class="a"><rect class="b" width="1920" height="1256" transform="translate(0 -88)"/><path class="c" d="M1378.172,928.39c115.715,7.754,209.821,124.012,280.5-108.082S1660.877,0,1660.877,0H271.384C224.678,86.327,440.461-27.713,522.437,104.211S551.725,421.83,635.045,487.988c95.185,75.579,219.233,13.552,309.074,79.764,100.75,74.252-94.966,255.506,13.933,386.628S1262.457,920.636,1378.172,928.39Z" transform="translate(257.563)"/><path class="d" d="M1396.59,254.2c21.468,151.453,94.916,166.052,112.354,289.311,24.084,170.248-83.329,372.124-174.148,370.767-67.36-1.006-37.457-183.444-185.384-320.208-108.7-100.5-277.4-146.518-320.208-98.309-7.4,8.331-10.629,19.016-11.14,31.121,51.7-12.672,101.33-20.736,139.644,7.5,71.892,52.983,97.526,189.711,64.066,314.793a1396.839,1396.839,0,0,1,102.359,112.854c44.8,55.255,67.288,91.709,85.088,117.971H1587.6V0H1433.12C1386.69,63.192,1386.07,179.985,1396.59,254.2Z" transform="translate(326.844)"/><path class="e" d="M460.386,294.307C465,261.427,394.408,196.8,325.74,174.765c-19.49-6.254-132.106-42.395-170.485,54.337-8.284,20.881-24.036,70.2-8.688,90.561,14.309,18.979,84.7,14.5,183.514-19.925C434.25,263.466,457.558,314.447,460.386,294.307Z" transform="translate(74.662 43.817)"/><path class="f" d="M424.837,180.47C264.229,200.453,76.452,92.527,76.452,92.527L-63.7,0H798.734C678.15,57.146,593.1,159.53,424.837,180.47Z" transform="translate(0.22 867.22) rotate(-90)"/><ellipse class="g" cx="15.5" cy="16" rx="15.5" ry="16" transform="translate(1540 106)"/><circle class="h" cx="4" cy="4" r="4" transform="translate(1052 509)"/><ellipse class="g" cx="11" cy="11.5" rx="11" ry="11.5" transform="translate(1570 567)"/><circle class="i" cx="10" cy="10" r="10" transform="translate(1088 49)"/><path class="j" d="M941.654,441.426c46.367-84.73,23.8-204.4-34.212-236.063-43.97-24-83.648,16.04-123.163-10.264-38.021-25.316-33.656-125.416-33.656-125.416S715.386,117,701.315,142.926c-31.61,58.3-53.612,128.827-62.141,197.624a184.921,184.921,0,0,1,39.048,54.689c35.886,74.786,6.367,118.674,39.342,143.69C765.063,574.962,891.383,533.285,941.654,441.426Z" transform="translate(131.495 -49.118)"/><path class="k" d="M378.4,163.317C233.061,181.4,63.132,83.733,63.132,83.733L-63.7,0H716.765C607.641,51.715,530.679,144.368,378.4,163.317Z" transform="translate(24.22 773.077) rotate(-90)"/><path class="l" d="M510.753,205.206c5.344,38.051-76.354,112.839-155.82,138.342-22.555,7.237-152.881,49.062-197.3-62.882-9.587-24.165-27.816-81.245-10.054-104.8,16.559-21.963,98.02-16.775,212.373,23.058C480.507,240.9,507.48,181.9,510.753,205.206Z" transform="translate(661.593 464.751)"/></g></g></svg>