<svg xmlns="http://www.w3.org/2000/svg" xmlns:xlink="http://www.w3.org/1999/xlink" width="1920" height="1080" viewBox="0 0 1920 1080">
  <defs>
    <linearGradient id="linear-gradient" x1="1.193" y1="0.101" x2="-0.717" y2="1.389" gradientUnits="objectBoundingBox">
      <stop offset="0" stop-color="#50adf3"/>
      <stop offset="0.498" stop-color="#475ff8"/>
      <stop offset="0.647" stop-color="#475ff8"/>
      <stop offset="0.863" stop-color="#475ff8"/>
      <stop offset="1" stop-color="#475ff8"/>
    </linearGradient>
    <linearGradient id="linear-gradient-2" x1="1.171" y1="0.022" x2="0.189" y2="1.068" gradientUnits="objectBoundingBox">
      <stop offset="0" stop-color="#fff" stop-opacity="0.6"/>
      <stop offset="0.686" stop-color="#fff" stop-opacity="0.051"/>
      <stop offset="1" stop-color="#fff" stop-opacity="0"/>
    </linearGradient>
    <linearGradient id="linear-gradient-3" x1="0.699" y1="0.078" x2="0.209" y2="1.476" gradientUnits="objectBoundingBox">
      <stop offset="0" stop-color="#a52eff"/>
      <stop offset="1" stop-color="#475ff8"/>
      <stop offset="1" stop-color="#4c51f4"/>
      <stop offset="1" stop-color="#3d58f3"/>
    </linearGradient>
    <linearGradient id="linear-gradient-4" x1="2.48" y1="-5.297" x2="0.032" y2="2.248" gradientUnits="objectBoundingBox">
      <stop offset="0" stop-color="#a52eff"/>
      <stop offset="0.498" stop-color="#6747f8"/>
      <stop offset="0.647" stop-color="#6049f7"/>
      <stop offset="0.863" stop-color="#4c51f4"/>
      <stop offset="1" stop-color="#3d58f3"/>
    </linearGradient>
    <linearGradient id="linear-gradient-5" x1="2.465" y1="-4.879" x2="0.017" y2="2.068" gradientUnits="objectBoundingBox">
      <stop offset="0" stop-color="#50adf3"/>
      <stop offset="1" stop-color="#8be6f5"/>
      <stop offset="1" stop-color="#3d58f3"/>
    </linearGradient>
    <linearGradient id="linear-gradient-6" x1="0" y1="0.5" x2="1" y2="0.5" xlink:href="#linear-gradient-2"/>
    <clipPath id="clip-Web_1920_1">
      <rect width="1920" height="1080"/>
    </clipPath>
  </defs>
  <g id="Web_1920_1" data-name="Web 1920 – 1" clip-path="url(#clip-Web_1920_1)">
    <rect width="1920" height="1080" fill="#fff"/>
    <g id="bg_hero_1">
      <path id="Path_2" data-name="Path 2" d="M901.777,1080h759.1V0H848.657c-47.776,27.3-113.2,76.217-157.534,158-64.828,119.561-80.511,301.8,2.809,367.958,95.185,75.579,247.22-57.785,337.061,8.427,100.75,74.252,110.688,312.982-5.618,453.628C989.359,1031.563,945.419,1060.619,901.777,1080Z" transform="translate(257.563)" fill="url(#linear-gradient)"/>
      <path id="Path_3" data-name="Path 3" d="M1396.594,254.2c21.468,151.453,94.916,166.052,112.354,289.311,24.084,170.248-83.329,372.124-174.148,370.767-67.36-1.006-37.457-183.444-185.384-320.208-108.7-100.5-277.4-146.518-320.208-98.309-7.4,8.331-10.629,19.016-11.14,31.121,51.7-12.672,101.33-20.736,139.644,7.5,71.892,52.983,97.526,189.711,64.066,314.793a1396.8,1396.8,0,0,1,102.359,112.854c44.8,55.255,67.288,91.709,85.088,117.971H1587.6V0H1433.123C1386.693,63.192,1386.075,179.985,1396.594,254.2Z" transform="translate(330.844)" opacity="0.3" fill="url(#linear-gradient-2)"/>
      <path id="Path_4" data-name="Path 4" d="M441.1,286.4c4.34-30.9-62.005-91.634-126.538-112.344-18.316-5.877-124.151-39.842-160.219,51.065-7.785,19.624-22.589,65.977-8.165,85.108,13.447,17.836,79.6,13.623,172.463-18.725C416.538,257.416,438.442,305.327,441.1,286.4Z" transform="translate(56.662 65.921)" opacity="0.14" fill="url(#linear-gradient-3)"/>
      <path id="Path_5" data-name="Path 5" d="M424.837,641.6C264.229,621.617,86.934,683.192,0,750.557V822.07H798.734C678.15,764.924,593.105,662.54,424.837,641.6Z" transform="translate(0 257.93)" fill="url(#linear-gradient-4)"/>
      <path id="Path_6" data-name="Path 6" d="M0,696.891V808.07H735.535C614.951,750.924,529.906,648.54,361.638,627.6,233.626,611.673,95.011,647.558,0,696.891Z" transform="translate(0 252.268)" opacity="0.19" fill="url(#linear-gradient-5)"/>
      <ellipse id="Ellipse_1" data-name="Ellipse 1" cx="15.5" cy="16" rx="15.5" ry="16" transform="translate(1540 106)" fill="#fff" opacity="0.2"/>
      <circle id="Ellipse_2" data-name="Ellipse 2" cx="4" cy="4" r="4" transform="translate(1052 509)" fill="#fff" opacity="0.12"/>
      <ellipse id="Ellipse_3" data-name="Ellipse 3" cx="11" cy="11.5" rx="11" ry="11.5" transform="translate(1570 567)" fill="#fff" opacity="0.2"/>
      <circle id="Ellipse_4" data-name="Ellipse 4" cx="10" cy="10" r="10" transform="translate(1088 49)" fill="#fff" opacity="0.13"/>
      <path id="Path_7" data-name="Path 7" d="M887.513,374.888c38.068-69.564,19.536-167.817-28.088-193.81-36.1-19.705-68.676,13.169-101.118-8.427-31.216-20.785-26.74-68.31-27.632-102.968a380.978,380.978,0,0,0-40.482,60.133c-25.952,47.863-44.016,105.768-51.018,162.251a151.819,151.819,0,0,1,32.059,44.9c29.463,61.4,5.227,97.433,32.3,117.971C742.53,484.522,846.24,450.305,887.513,374.888Z" transform="translate(258.495 28.181)" opacity="0.3" fill="url(#linear-gradient-6)"/>
    </g>
  </g>
</svg>
