<svg xmlns="http://www.w3.org/2000/svg" xmlns:xlink="http://www.w3.org/1999/xlink" width="1920" height="1080" viewBox="0 0 1920 1080"><defs><style>.a{clip-path:url(#j);}.b{opacity:0.82;}.c{opacity:0.92;clip-path:url(#a);}.d,.i,.j,.k{fill:#fff;}.e{fill:url(#b);}.f,.l{opacity:0.3;}.f{fill:url(#c);}.g{opacity:0.35;fill:url(#d);}.h{fill:url(#e);}.i{opacity:0.2;}.j{opacity:0.12;}.k{opacity:0.13;}.l{fill:url(#f);}.m{fill:#5dd8ff;opacity:0.24;}.n{opacity:0.37;fill:url(#g);}.o{opacity:0.8;fill:url(#h);}</style><clipPath id="a"><rect width="1920" height="1369"/></clipPath><linearGradient id="b" x1="1.193" y1="0.101" x2="-0.717" y2="1.389" gradientUnits="objectBoundingBox"><stop offset="0" stop-color="#50adf3"/><stop offset="1" stop-color="#475ff8"/></linearGradient><linearGradient id="c" x1="1.171" y1="0.022" x2="0.189" y2="1.068" gradientUnits="objectBoundingBox"><stop offset="0" stop-color="#fff" stop-opacity="0.6"/><stop offset="0.686" stop-color="#fff" stop-opacity="0.051"/><stop offset="1" stop-color="#fff" stop-opacity="0"/></linearGradient><linearGradient id="d" x1="0.699" y1="0.078" x2="0.209" y2="1.476" gradientUnits="objectBoundingBox"><stop offset="0" stop-color="#2edbff"/><stop offset="1" stop-color="#47abf8"/><stop offset="1" stop-color="#4c51f4"/><stop offset="1" stop-color="#3d58f3"/></linearGradient><linearGradient id="e" x1="1.317" y1="1.978" x2="-0.085" y2="-0.979" gradientUnits="objectBoundingBox"><stop offset="0" stop-color="#a52eff"/><stop offset="0.498" stop-color="#5347f8"/><stop offset="0.647" stop-color="#496cf7"/><stop offset="0.863" stop-color="#4c8af4"/><stop offset="1" stop-color="#3b94f9"/></linearGradient><linearGradient id="f" x1="0" y1="0.5" x2="1" y2="0.5" xlink:href="#c"/><linearGradient id="g" x1="0.699" y1="0.922" x2="0.209" y2="-0.476" gradientUnits="objectBoundingBox"><stop offset="0" stop-color="#a52eff"/><stop offset="1" stop-color="#475ff8"/><stop offset="1" stop-color="#4c51f4"/><stop offset="1" stop-color="#3d58f3"/></linearGradient><linearGradient id="h" x1="0.009" y1="0.857" x2="0.926" y2="0.079" gradientUnits="objectBoundingBox"><stop offset="0" stop-color="#ffa59b"/><stop offset="1" stop-color="#dbd5eb"/></linearGradient><clipPath id="j"><rect width="1920" height="1080"/></clipPath></defs><g id="i" class="a"><rect class="d" width="1920" height="1080"/><g class="b" transform="translate(0 -2)"><g class="c"><rect class="d" width="1920" height="1080"/><rect class="d" width="1920" height="1457" transform="translate(0 -88)"/><path class="e" d="M1378.17,928.39c115.715,7.754,212.031,232.094,282.71,0s0-928.39,0-928.39H271.384C224.678,86.327,440.461-27.713,522.437,104.211S551.725,421.83,635.045,487.988c95.185,75.579,219.233,13.552,309.074,79.764C1044.869,642,849.153,823.258,958.052,954.38S1262.46,920.636,1378.17,928.39Z" transform="translate(257.563)"/><path class="f" d="M1396.59,254.2c21.468,151.453,94.916,166.052,112.354,289.311,24.084,170.248-83.329,372.124-174.148,370.767-67.36-1.006-37.457-183.444-185.384-320.208-108.7-100.5-277.4-146.518-320.208-98.309-7.4,8.331-10.629,19.016-11.14,31.121,51.7-12.672,101.33-20.736,139.644,7.5,71.892,52.983,97.526,189.711,64.066,314.793a1396.786,1396.786,0,0,1,102.359,112.854c44.8,55.255,67.288,91.709,85.088,117.971H1587.6V0H1433.12C1386.69,63.192,1386.07,179.985,1396.59,254.2Z" transform="translate(326.844)"/><path class="g" d="M538.7,326.414c5.742-40.92-82.111-121.349-167.569-148.772-24.256-7.783-164.408-52.761-212.171,67.623-10.31,25.987-29.913,87.365-10.812,112.7,17.808,23.62,105.41,18.046,228.386-24.8C506.172,288.032,535.179,351.479,538.7,326.414Z" transform="translate(67.662 144.817)"/><path class="h" d="M424.837,180.47C264.229,200.453,76.452,92.527,76.452,92.527L-63.7,0H798.734C678.15,57.146,593.1,159.53,424.837,180.47Z" transform="translate(0.22 920.22) rotate(-90)"/><ellipse class="i" cx="15.5" cy="16" rx="15.5" ry="16" transform="translate(1540 106)"/><circle class="j" cx="4" cy="4" r="4" transform="translate(1052 509)"/><ellipse class="i" cx="11" cy="11.5" rx="11" ry="11.5" transform="translate(1570 567)"/><circle class="k" cx="10" cy="10" r="10" transform="translate(1088 49)"/><path class="l" d="M941.654,441.426c46.367-84.73,23.8-204.4-34.212-236.063-43.97-24-83.648,16.04-123.163-10.264-38.021-25.316-33.656-125.416-33.656-125.416S715.386,117,701.315,142.926c-31.61,58.3-53.612,128.827-62.141,197.624a184.921,184.921,0,0,1,39.048,54.689c35.886,74.786,6.367,118.674,39.342,143.69C765.063,574.962,891.383,533.285,941.654,441.426Z" transform="translate(131.495 -49.118)"/><path class="m" d="M378.4,163.317C233.061,181.4,63.132,83.733,63.132,83.733L-63.7,0H716.765C607.641,51.715,530.679,144.368,378.4,163.317Z" transform="translate(67.22 879.077) rotate(-90)"/><path class="n" d="M510.753,205.206c5.344,38.051-76.354,112.839-155.82,138.342-22.555,7.237-152.881,49.062-197.3-62.882-9.587-24.165-27.816-81.245-10.054-104.8,16.559-21.963,98.02-16.775,212.373,23.058C480.507,240.9,507.48,181.9,510.753,205.206Z" transform="translate(530.593 582.751)"/></g><path class="o" d="M0,473.606s97.863,36.929,190.8,7.386c91.079-28.953,52.932-190.8,171.106-189.573S710.276,175.706,665.961,101.848,341.6-16.631,270.816,5.833,0,39.071,0,39.071Z" transform="translate(-176.091 -68.891)"/></g></g></svg>