<svg xmlns="http://www.w3.org/2000/svg" xmlns:xlink="http://www.w3.org/1999/xlink" width="1421" height="722.691" viewBox="0 0 1421 722.691"><defs><style>.a{opacity:0.77;}.b{fill:url(#a);}.c{fill:url(#b);}</style><linearGradient id="a" y1="0.047" x2="0.862" y2="0.936" gradientUnits="objectBoundingBox"><stop offset="0" stop-color="#f1b7e5" stop-opacity="0"/><stop offset="1" stop-color="#8bdcff" stop-opacity="0.58"/></linearGradient><linearGradient id="b" x1="1.015" y1="0.977" x2="0.092" y2="0.021" gradientUnits="objectBoundingBox"><stop offset="0" stop-color="#aed9ff" stop-opacity="0"/><stop offset="1" stop-color="#faaeff" stop-opacity="0.38"/></linearGradient></defs><g class="a" transform="translate(-147 -970.51)"><path class="b" d="M0,1163.479S103,1103.83,198,1094s96.167,39.833,180,90,60,19,112,13.333,95.948-149,156.091-142.613,76.714,53.307,27.9,92.813c-25.629,20.741,16.661,47.951-27.9,81.01s11.848,125.944-13.949,147.536c-54.31,45.456,47.748,106.762,3.219,147.536S501.3,1493.63,477.632,1469.963s20.034-38.963-22.966-56.63-133.333-26-172,8S225,1489,238.667,1538.67c.56,2.036,304.1,13.322,369.655,27.271s87.18,72.534,17.436,110.2S220.334,1690.67,136,1686.67,0,1604,0,1604Z" transform="translate(147 -84)"/><path class="c" d="M1325.865,2307.271s-35.182-54.9-136.309-91.5-115.8,98.761-213.929,106.018S809.809,2303.2,750.8,2247.821s-93.822-40.371-135.472-97.166,22.394-75.866,10.719-146.86-28.811-193.348,64.065-232.046,111.691,11.618,194.045,18.244,93.673,5.485,177.289,43.98,48.749,100.339,114.853,130,149.561,23.98,149.561,23.98Z" transform="translate(242.135 -629.782)"/></g></svg>