<svg xmlns="http://www.w3.org/2000/svg" xmlns:xlink="http://www.w3.org/1999/xlink" width="1920" height="1080" viewBox="0 0 1920 1080"><defs><style>.a{clip-path:url(#d);}.b{fill:url(#a);}.c{fill:url(#b);}.d{fill:#fff;}</style><linearGradient id="a" x1="0.009" y1="0.143" x2="0.926" y2="0.921" gradientUnits="objectBoundingBox"><stop offset="0" stop-color="#ffa59b" stop-opacity="0.071"/><stop offset="1" stop-color="#dbd5eb" stop-opacity="0.502"/></linearGradient><linearGradient id="b" x1="0.009" y1="0.857" x2="0.926" y2="0.079" gradientUnits="objectBoundingBox"><stop offset="0" stop-color="#9bc0ff" stop-opacity="0.071"/><stop offset="1" stop-color="#dbd5eb" stop-opacity="0.502"/></linearGradient><clipPath id="d"><rect width="1920" height="1080"/></clipPath></defs><g id="c" class="a"><rect class="d" width="1920" height="1080"/><path class="b" d="M0,3465.861s199.832-75.408,389.609-15.082c185.98,59.12,108.085,389.609,349.391,387.1s711.35,236.279,620.86,387.095S697.525,4466.9,552.993,4421.031s65.354-158.357,0-236.279-172.182-91.118-326.769-62.84S0,4353.164,0,4353.164Z" transform="translate(2470.271 4167.944) rotate(180)"/><path class="c" d="M0,840.106s173.594,65.507,338.454,13.1c161.562-51.358,93.894-338.454,303.517-336.27s617.951-205.256,539.343-336.27S605.941-29.5,480.386,10.348s56.773,137.565,0,205.256-149.575,79.155-283.864,54.59S0,69.3,0,69.3Z" transform="translate(0 206.028)"/></g></svg>