<svg xmlns="http://www.w3.org/2000/svg" xmlns:xlink="http://www.w3.org/1999/xlink" width="1920" height="854" viewBox="0 0 1920 854"><defs><style>.a{clip-path:url(#e);}.b{fill:url(#a);}.c{fill:url(#b);}.d,.f,.i,.j{fill:#fff;}.d{stroke:rgba(0,0,0,0);}.d,.f,.g{opacity:0.2;}.e{fill:url(#c);}.h{fill:none;}.j{opacity:0.16;}</style><linearGradient id="a" x1="1" y1="0.01" x2="0" y2="1" gradientUnits="objectBoundingBox"><stop offset="0" stop-color="#2ebfff"/><stop offset="1" stop-color="#3d86f3"/></linearGradient><linearGradient id="b" x1="0.814" y1="0.106" x2="0.213" y2="0.854" gradientUnits="objectBoundingBox"><stop offset="0" stop-color="#fff" stop-opacity="0"/><stop offset="1" stop-color="#fff" stop-opacity="0.2"/></linearGradient><linearGradient id="c" x1="0.093" y1="0.119" x2="0.916" y2="0.851" xlink:href="#b"/><clipPath id="e"><rect width="1920" height="854"/></clipPath></defs><g id="d" class="a"><rect class="i" width="1920" height="854"/><path class="b" d="M1436,974.884s194.525-158.611,435.4-170.489,292.84,113.194,528.1,122.976,224.02-162.1,432.589-176.085,264.75,129.964,401.69,120.181S3355.5,810.083,3355.5,810.083V326.931L1436,326Z" transform="translate(-1436 -326)"/><path class="c" d="M-2915.173,290.486c-58.053-95.507-112.361,170.415-194.759,176.031-41.483,2.827-47.369-28.993-59.712-60.815-12.173-31.385-30.63-62.769-95.72-60.909-131.078,3.746-44.939-198.5,97.38-204.122,94.764-3.742,99.034-69.742,91.306-113.439l292.593.14V510.524s9.259,31.413-51.707,49.86C-2847.28,491.2-2873.515,359.021-2915.173,290.486Z" transform="translate(4703.578 -26.438)"/><path class="d" d="M-1402.994,66.012a32.793,32.793,0,0,1-23.339-9.667A32.788,32.788,0,0,1-1436,33.006a32.792,32.792,0,0,1,9.667-23.34A32.793,32.793,0,0,1-1402.994,0a32.792,32.792,0,0,1,23.339,9.667,32.791,32.791,0,0,1,9.667,23.339,32.789,32.789,0,0,1-9.667,23.339,32.793,32.793,0,0,1-23.339,9.667Zm0-56.582a23.6,23.6,0,0,0-23.582,23.576,23.6,23.6,0,0,0,23.582,23.576,23.6,23.6,0,0,0,23.582-23.576A23.6,23.6,0,0,0-1402.994,9.43Z" transform="translate(1513.247 382.027)"/><path class="e" d="M-4241.53,529.895V46.537h7.947c108.99,72.679,124.44,223.644,258.909,146.069,74.06-42.727,164.006-101.341,247.505-145.819l324.856.159c-50.747,32.655-133.917,68.725-120.11,145.66,19.663,109.552,84.271,255.621-42.135,258.43-53.922,1.2-99.665-28.783-146.388-58.765-62.807-40.3-127.389-80.606-215.976-45.169-132.676,53.071-257.067,182.79-314.47,182.793Z" transform="translate(4241.531 -46.537)"/><path class="d" d="M-1419.68,32.646a16.219,16.219,0,0,1-11.543-4.775A16.215,16.215,0,0,1-1436,16.328a16.219,16.219,0,0,1,4.775-11.544A16.219,16.219,0,0,1-1419.68.009a16.218,16.218,0,0,1,11.544,4.775,16.218,16.218,0,0,1,4.775,11.544,16.217,16.217,0,0,1-4.775,11.542A16.219,16.219,0,0,1-1419.68,32.646Zm0-27.985a11.674,11.674,0,0,0-11.657,11.657,11.673,11.673,0,0,0,11.657,11.657,11.673,11.673,0,0,0,11.658-11.657A11.674,11.674,0,0,0-1419.68,4.661Z" transform="translate(2784.328 106.401)"/><circle class="f" cx="19" cy="19" r="19" transform="translate(579 150)"/><circle class="f" cx="26" cy="26" r="26" transform="translate(1681 400)"/><circle class="f" cx="12" cy="12" r="12" transform="translate(862 515)"/><g class="g" transform="translate(990.764 77.252) rotate(74.991)"><path class="h" d="M19.976,5.778a11.468,11.468,0,0,1,19.913,0L58.354,38.091A11.468,11.468,0,0,1,48.4,55.249H11.468A11.468,11.468,0,0,1,1.511,38.091Z" transform="translate(0.017 0)"/><path class="i" d="M29.949,7.023a4.365,4.365,0,0,0-3.859,2.24L7.625,41.576a4.445,4.445,0,0,0,3.859,6.651h36.93a4.445,4.445,0,0,0,3.859-6.651L33.809,9.262a4.365,4.365,0,0,0-3.86-2.24m0-7.023a11.359,11.359,0,0,1,9.957,5.778L58.371,38.092a11.468,11.468,0,0,1-9.957,17.157H11.485A11.468,11.468,0,0,1,1.528,38.092L19.993,5.778A11.359,11.359,0,0,1,29.949,0Z" transform="translate(0 0)"/></g><g class="g" transform="translate(245.351 64.573) rotate(146.993)"><path class="h" d="M17.909,5.18a10.282,10.282,0,0,1,17.854,0L52.318,34.151a10.281,10.281,0,0,1-8.927,15.382H10.281A10.282,10.282,0,0,1,1.354,34.151Z" transform="translate(0.017 0.001)"/><path class="i" d="M26.852,5.618A4.579,4.579,0,0,0,22.8,7.968L6.248,36.939A4.664,4.664,0,0,0,10.3,43.917h33.11a4.664,4.664,0,0,0,4.049-6.978L30.9,7.968a4.579,4.579,0,0,0-4.049-2.35m0-5.618a10.184,10.184,0,0,1,8.927,5.181L52.334,34.152a10.282,10.282,0,0,1-8.927,15.383H10.3A10.282,10.282,0,0,1,1.37,34.152L17.925,5.181A10.184,10.184,0,0,1,26.852,0Z" transform="translate(0 0)"/></g><path class="j" d="M-3534.427,387.269c69.289-50.562,119.853-5.618,138.579-69.29,15.923-54.138,123.912-36.517,147.833-3.552-139.168,22.879-169.243,123.958-287.067,159.953C-3556.983,450.7-3574.469,416.482-3534.427,387.269Z" transform="translate(4611.222 114.61)"/><ellipse class="f" cx="13" cy="13.5" rx="13" ry="13.5" transform="translate(402 400)"/></g></svg>